<?xml version="1.0" encoding="utf-8"?>
<!-- Generator: Adobe Illustrator 27.5.0, SVG Export Plug-In . SVG Version: 6.00 Build 0)  -->
<svg version="1.1" xmlns="http://www.w3.org/2000/svg" xmlns:xlink="http://www.w3.org/1999/xlink" x="0px" y="0px"
	 viewBox="0 0 500 500" style="enable-background:new 0 0 500 500;" xml:space="preserve">
<g id="Background_Complete">
	<g>
		<rect y="382.398" style="fill:#EBEBEB;" width="500" height="0.25"/>
		<rect x="416.779" y="398.494" style="fill:#EBEBEB;" width="33.122" height="0.25"/>
		<rect x="322.527" y="401.208" style="fill:#EBEBEB;" width="8.693" height="0.25"/>
		<rect x="396.586" y="389.208" style="fill:#EBEBEB;" width="19.192" height="0.25"/>
		<rect x="52.459" y="390.888" style="fill:#EBEBEB;" width="43.193" height="0.25"/>
		<rect x="104.556" y="390.888" style="fill:#EBEBEB;" width="6.333" height="0.25"/>
		<rect x="131.471" y="395.111" style="fill:#EBEBEB;" width="93.676" height="0.25"/>
		<path style="fill:#EBEBEB;" d="M237.014,337.8H43.915c-3.147,0-5.708-2.561-5.708-5.708V60.66c0-3.147,2.561-5.708,5.708-5.708
			h193.099c3.146,0,5.707,2.561,5.707,5.708v271.432C242.721,335.239,240.16,337.8,237.014,337.8z M43.915,55.203
			c-3.01,0-5.458,2.448-5.458,5.458v271.432c0,3.01,2.448,5.458,5.458,5.458h193.099c3.009,0,5.457-2.448,5.457-5.458V60.66
			c0-3.009-2.448-5.458-5.457-5.458H43.915z"/>
		<path style="fill:#EBEBEB;" d="M453.31,337.8H260.212c-3.147,0-5.707-2.561-5.707-5.708V60.66c0-3.147,2.561-5.708,5.707-5.708
			H453.31c3.148,0,5.708,2.561,5.708,5.708v271.432C459.019,335.239,456.458,337.8,453.31,337.8z M260.212,55.203
			c-3.009,0-5.457,2.448-5.457,5.458v271.432c0,3.01,2.448,5.458,5.457,5.458H453.31c3.01,0,5.458-2.448,5.458-5.458V60.66
			c0-3.009-2.448-5.458-5.458-5.458H260.212z"/>
	</g>
	<g>
		<g>
			<rect x="92.029" y="285.867" style="fill:#EBEBEB;" width="126.417" height="8.923"/>
			<rect x="163.476" y="285.867" style="fill:#E0E0E0;" width="54.969" height="8.923"/>
			<rect x="92.029" y="294.791" style="fill:#EBEBEB;" width="18.677" height="87.608"/>
			<polygon style="fill:#E0E0E0;" points="110.706,303.833 92.029,297.472 92.029,294.791 110.706,294.791 			"/>
			<rect x="199.768" y="294.791" style="fill:#E0E0E0;" width="18.678" height="87.608"/>
			<rect x="163.476" y="294.791" style="fill:#EBEBEB;" width="18.678" height="87.608"/>
			<polygon style="fill:#E0E0E0;" points="182.154,303.833 163.476,297.472 163.476,294.791 182.154,294.791 			"/>
			<rect x="128.321" y="294.791" style="fill:#E0E0E0;" width="18.677" height="87.608"/>
		</g>
		<g>
			<rect x="71" y="87.166" style="fill:#EBEBEB;" width="159.333" height="135.667"/>
			
				<rect x="230.333" y="87.166" transform="matrix(-1 -1.224647e-16 1.224647e-16 -1 462.4444 309.9997)" style="fill:#E0E0E0;" width="1.778" height="135.667"/>
			
				<rect x="88.833" y="81.333" transform="matrix(-1.836970e-16 1 -1 -1.836970e-16 305.6665 4.3332)" style="fill:#F5F5F5;" width="123.667" height="147.333"/>
		</g>
		<g>
			<path style="fill:#FFFFFF;" d="M148.888,198.056c8.975-30.027,11.5-74.248,30.646-68.144c19.145,6.104-5.935,71.532-5.935,71.532
				L148.888,198.056z"/>
			<path style="fill:#FFFFFF;" d="M164.352,199.554c-9.161-43.481-6.852-101.205-35.313-99.881c-28.461,1.324,0,101.771,0,101.771
				L164.352,199.554z"/>
			<g>
				<path style="fill:#EBEBEB;" d="M184.455,194.674h-62.301c-2.77,0-4.873,2.033-4.986,4.604
					c-1.267,28.699,3.434,57.952,12.183,86.589h47.709c8.749-28.637,13.45-57.89,12.182-86.589
					C189.128,196.707,187.029,194.674,184.455,194.674z"/>
			</g>
		</g>
		<g>
			<g>
				<g>
					<rect x="322.69" y="102.298" style="fill:#E0E0E0;" width="3.51" height="280.101"/>
					<rect x="405.182" y="102.298" style="fill:#E0E0E0;" width="3.51" height="280.101"/>
					<rect x="297.799" y="102.298" style="fill:#EBEBEB;" width="3.51" height="280.101"/>
					<rect x="380.291" y="102.298" style="fill:#EBEBEB;" width="3.51" height="280.101"/>
					<rect x="297.799" y="100.383" style="fill:#EBEBEB;" width="110.894" height="3.829"/>
					<rect x="297.799" y="168.973" style="fill:#EBEBEB;" width="110.894" height="3.829"/>
					<rect x="297.799" y="237.563" style="fill:#EBEBEB;" width="110.894" height="3.829"/>
					<rect x="297.799" y="306.152" style="fill:#EBEBEB;" width="110.894" height="3.829"/>
					<rect x="297.799" y="374.742" style="fill:#EBEBEB;" width="110.894" height="3.829"/>
					<rect x="383.801" y="100.382" style="fill:#E0E0E0;" width="24.891" height="3.829"/>
					<rect x="383.801" y="168.972" style="fill:#E0E0E0;" width="24.891" height="3.829"/>
					<rect x="383.801" y="237.562" style="fill:#E0E0E0;" width="24.891" height="3.829"/>
					<rect x="383.801" y="306.151" style="fill:#E0E0E0;" width="24.891" height="3.829"/>
					<rect x="383.801" y="374.741" style="fill:#E0E0E0;" width="24.891" height="3.829"/>
				</g>
			</g>
			<path style="fill:#F0F0F0;" d="M342.535,123.712v-5.398h-13.334v5.398c0,3.526-2.859,6.385-6.385,6.385l0,0
				c-3.527,0-6.385,2.859-6.385,6.385v32.49h38.875v-32.49c0-3.527-2.859-6.385-6.385-6.385h0
				C345.393,130.097,342.535,127.238,342.535,123.712z"/>
			<g>
				<rect x="311.703" y="215.255" style="fill:#F0F0F0;" width="58.419" height="22.307"/>
				
					<rect x="370.121" y="215.255" transform="matrix(-1 -1.224647e-16 1.224647e-16 -1 750.4124 452.8169)" style="fill:#E6E6E6;" width="10.17" height="22.307"/>
				
					<rect x="370.121" y="225.18" transform="matrix(-1 -1.224647e-16 1.224647e-16 -1 750.4124 452.8168)" style="fill:#EBEBEB;" width="10.17" height="2.458"/>
				<rect x="311.703" y="225.18" style="fill:#F5F5F5;" width="58.419" height="2.458"/>
			</g>
			<g>
				<rect x="308.835" y="335.303" style="fill:#F0F0F0;" width="45.632" height="39.439"/>
				
					<rect x="354.467" y="335.303" transform="matrix(-1 -1.224647e-16 1.224647e-16 -1 716.8775 710.0451)" style="fill:#E6E6E6;" width="7.944" height="39.439"/>
				
					<rect x="354.467" y="352.85" transform="matrix(-1 -1.224647e-16 1.224647e-16 -1 716.8775 710.045)" style="fill:#EBEBEB;" width="7.944" height="4.345"/>
				<rect x="308.835" y="352.85" style="fill:#F5F5F5;" width="45.632" height="4.345"/>
				
					<rect x="354.467" y="348.249" transform="matrix(-1 -1.224647e-16 1.224647e-16 -1 716.8775 698.0506)" style="fill:#EBEBEB;" width="7.944" height="1.552"/>
				<rect x="308.835" y="348.249" style="fill:#F5F5F5;" width="45.632" height="1.552"/>
			</g>
			<g>
				<g>
					<rect x="311.703" y="266.054" style="fill:#F0F0F0;" width="8.264" height="40.098"/>
					<rect x="311.703" y="280.341" style="fill:#FAFAFA;" width="8.264" height="11.523"/>
					
						<rect x="319.967" y="266.054" transform="matrix(-1 -1.224647e-16 1.224647e-16 -1 668.0332 572.2054)" style="fill:#E6E6E6;" width="28.099" height="40.098"/>
				</g>
				<g>
					<rect x="323.391" y="260.868" style="fill:#EBEBEB;" width="9.333" height="45.283"/>
					<rect x="323.391" y="275.261" style="fill:#FAFAFA;" width="9.333" height="6.972"/>
					<rect x="323.391" y="286.903" style="fill:#FAFAFA;" width="9.333" height="6.972"/>
					
						<rect x="332.724" y="260.868" transform="matrix(-1 -1.224647e-16 1.224647e-16 -1 697.1812 567.0197)" style="fill:#E0E0E0;" width="31.733" height="45.283"/>
				</g>
				<g>
					<rect x="338.08" y="266.054" style="fill:#F0F0F0;" width="5.026" height="40.098"/>
					<rect x="338.944" y="271.134" style="fill:#FAFAFA;" width="3.298" height="29.938"/>
					
						<rect x="343.106" y="266.054" transform="matrix(-1 -1.224647e-16 1.224647e-16 -1 703.2985 572.2054)" style="fill:#E6E6E6;" width="17.087" height="40.098"/>
				</g>
				<g>
					<rect x="350.863" y="263.937" style="fill:#EBEBEB;" width="5.676" height="42.214"/>
					<rect x="350.863" y="277.355" style="fill:#FAFAFA;" width="5.676" height="6.5"/>
					<rect x="350.863" y="288.207" style="fill:#FAFAFA;" width="5.676" height="6.5"/>
					
						<rect x="356.539" y="263.937" transform="matrix(-1 -1.224647e-16 1.224647e-16 -1 732.3752 570.0888)" style="fill:#E0E0E0;" width="19.297" height="42.214"/>
				</g>
			</g>
			
				<ellipse transform="matrix(0.7071 -0.7071 0.7071 0.7071 -42.3206 303.4691)" style="fill:#F5F5F5;" cx="345.159" cy="202.82" rx="12.435" ry="12.435"/>
			
				<ellipse transform="matrix(0.9871 -0.1602 0.1602 0.9871 -28.4641 60.1604)" style="fill:#EBEBEB;" cx="358.919" cy="206.632" rx="8.623" ry="8.623"/>
		</g>
	</g>
</g>
<g id="Background_Simple" style="display:none;">
	<g style="display:inline;">
		<path style="fill:#407BFF;" d="M219.124,183.697c1.736-0.372,3.463-0.758,5.18-1.154c42.218-9.735,90.499-15.369,127.108,1.784
			c35.891,16.816,31.482,52.444,10.493,85.161c-35.933,56.009-172.032,109.144-208.729,52.207
			c-11.863-18.406,8.589-50.802-6.128-72.498c-16.755-24.7-94.319-9.081-78.821-63.649c8.593-30.257,30.629-28.48,54.314-18.66
			c13.592,5.635,26.572,12.644,40.625,17.407C180.236,190.078,200.155,187.758,219.124,183.697z"/>
		<path style="opacity:0.9;fill:#FFFFFF;" d="M219.124,183.697c1.736-0.372,3.463-0.758,5.18-1.154
			c42.218-9.735,90.499-15.369,127.108,1.784c35.891,16.816,31.482,52.444,10.493,85.161
			c-35.933,56.009-172.032,109.144-208.729,52.207c-11.863-18.406,8.589-50.802-6.128-72.498
			c-16.755-24.7-94.319-9.081-78.821-63.649c8.593-30.257,30.629-28.48,54.314-18.66c13.592,5.635,26.572,12.644,40.625,17.407
			C180.236,190.078,200.155,187.758,219.124,183.697z"/>
	</g>
</g>
<g id="Shadow_1_">
	<ellipse id="_x3C_Path_x3E__356_" style="fill:#F5F5F5;" cx="250" cy="416.238" rx="193.889" ry="11.323"/>
</g>
<g id="Box">
	<g>
		<path style="fill:#407BFF;" d="M254.553,338.69H126.108v66.336c0,3.573,2.897,6.47,6.47,6.47h115.504
			c3.573,0,6.47-2.897,6.47-6.47V338.69z"/>
		<g>
			<path style="fill:#407BFF;" d="M126.108,338.69h90.883l-11.182-14.308c-1.226-1.569-4.27-2.841-6.798-2.841h-81.726
				c-2.529,0-3.584,1.272-2.358,2.841L126.108,338.69z"/>
			<path style="opacity:0.2;" d="M126.108,338.69h90.883l-11.182-14.308c-1.226-1.569-4.27-2.841-6.798-2.841h-81.726
				c-2.529,0-3.584,1.272-2.358,2.841L126.108,338.69z"/>
		</g>
		<path style="fill:#407BFF;" d="M254.553,338.69H163.67l11.182-9.326c1.226-1.023,4.27-1.852,6.798-1.852h81.726
			c2.528,0,3.584,0.829,2.358,1.852L254.553,338.69z"/>
		<path style="opacity:0.2;fill:#FFFFFF;" d="M254.553,338.69H163.67v66.336c0,3.573,2.897,6.47,6.47,6.47h77.942
			c3.573,0,6.47-2.897,6.47-6.47V338.69z"/>
		<polygon style="opacity:0.5;fill:#FFFFFF;" points="137.389,338.69 137.389,384.172 140.53,381.693 142.741,384.172 
			144.665,381.411 146.627,384.172 149.374,382.095 152.389,384.172 152.389,338.69 		"/>
	</g>
</g>
<g id="Character_1_">
	<g>
		<g>
			<line style="fill:none;stroke:#407BFF;stroke-miterlimit:10;" x1="157.725" y1="239.48" x2="141.573" y2="225.92"/>
			<line style="fill:none;stroke:#407BFF;stroke-miterlimit:10;" x1="166.094" y1="246.506" x2="161.168" y2="242.371"/>
			<path style="fill:#407BFF;" d="M214.474,274.889l53.278-66.594l-70.938-59.555l-47.036,53.929l-6.962,13.491
				c-1.463,1.678-1.26,4.03,0.473,5.485l64.014,53.742C209.369,277.121,212.731,276.888,214.474,274.889z"/>
			<polygon style="opacity:0.5;fill:#FFFFFF;" points="177.933,225.782 170.263,238.135 173.347,238.798 174.395,241.665 
				176.451,241.785 177.396,244.229 179.909,244.964 181.845,248.029 189.514,235.675 			"/>
			<polygon style="opacity:0.1;" points="265.433,206.347 217.65,259.65 149.778,202.669 196.814,148.741 			"/>
			<g>
				<polygon style="fill:#407BFF;" points="265.433,206.347 217.65,259.65 237.433,261.113 284.47,207.184 				"/>
				<polygon style="opacity:0.3;" points="265.433,206.347 217.65,259.65 237.433,261.113 284.47,207.184 				"/>
			</g>
			<g>
				<polygon style="fill:#407BFF;" points="177.777,147.904 129.995,201.206 149.778,202.669 196.814,148.741 				"/>
				<polygon style="opacity:0.4;" points="177.777,147.904 129.995,201.206 149.778,202.669 196.814,148.741 				"/>
			</g>
			<polygon style="opacity:0.1;" points="250.718,222.762 265.433,206.347 196.814,148.741 188.025,169.898 			"/>
			<polygon style="opacity:0.2;" points="149.778,202.669 196.814,148.741 188.025,169.898 154.909,206.977 			"/>
		</g>
		<g>
			<path style="fill:#263238;" d="M282.014,106.007c0.189,0.646,0.001,1.269-0.421,1.393c-0.422,0.124-0.918-0.299-1.107-0.945
				c-0.19-0.646-0.001-1.269,0.421-1.393C281.329,104.939,281.825,105.362,282.014,106.007z"/>
			<path style="fill:#ED847E;" d="M282.075,107.259c0,0-0.375,4.156-1.463,6.427c1.455,0.731,3.254-0.326,3.254-0.326
				L282.075,107.259z"/>
			<path style="fill:#263238;" d="M283.326,101.729c0.085-0.045,0.154-0.121,0.188-0.218c0.072-0.206-0.036-0.431-0.242-0.504
				c-2.062-0.727-3.52,0.367-3.583,0.414c-0.173,0.133-0.206,0.381-0.073,0.554c0.133,0.173,0.383,0.203,0.553,0.074l0,0
				c0.048-0.036,1.196-0.876,2.841-0.297C283.118,101.79,283.232,101.778,283.326,101.729z"/>
			<path style="fill:#FFC3BD;" d="M304.242,110.283c0.437,5.3,1.75,15.025,4.882,17.239c0,0-0.746,6.368-11.964,8.025
				c-12.335,1.822-6.799-5.253-6.799-5.253c6.495-2.602,5.583-7.571,3.718-12.089l4.767-5.463
				C300.634,110.69,304.018,107.57,304.242,110.283z"/>
			<path style="fill:#FFFFFF;" d="M313.153,130.107c1.005-0.908-1.021-4.546-2.23-5.053c-3.221-1.353-16.395-0.016-21.348,4.243
				c-1.419,2.253-0.389,4.689-0.389,4.689L313.153,130.107z"/>
			<path style="fill:#407BFF;" d="M355.092,397.408c-0.818,0.251-1.649,0.369-2.079,0.061c-0.181-0.129-0.374-0.39-0.268-0.898
				c0.056-0.267,0.209-0.477,0.458-0.622c1.077-0.631,3.745,0.202,3.859,0.238c0.074,0.023,0.128,0.089,0.136,0.166
				c0.009,0.077-0.029,0.153-0.095,0.192C356.724,396.769,355.914,397.156,355.092,397.408z M353.627,396.194
				c-0.083,0.026-0.159,0.057-0.225,0.096c-0.15,0.088-0.238,0.206-0.271,0.362c-0.075,0.363,0.065,0.464,0.112,0.497
				c0.479,0.342,2.109-0.148,3.239-0.715C355.665,396.221,354.352,395.972,353.627,396.194z"/>
			<path style="fill:#407BFF;" d="M357.059,396.565c-0.031,0.009-0.064,0.011-0.097,0.005c-0.963-0.195-3.094-1.453-3.198-2.394
				c-0.019-0.171,0.015-0.486,0.45-0.68c0.283-0.126,0.577-0.127,0.879-0.004c1.159,0.473,2.056,2.716,2.093,2.811
				c0.026,0.068,0.015,0.144-0.032,0.199C357.128,396.532,357.095,396.554,357.059,396.565z M354.458,393.825
				c-0.028,0.009-0.056,0.019-0.084,0.032c-0.236,0.105-0.223,0.224-0.217,0.275c0.061,0.556,1.483,1.564,2.494,1.936
				c-0.3-0.644-0.965-1.907-1.709-2.21C354.773,393.788,354.614,393.777,354.458,393.825z"/>
			<path style="fill:#407BFF;" d="M296.483,408.148c-1.071,0-2.105-0.147-2.451-0.628c-0.121-0.168-0.217-0.455,0.017-0.864
				c0.13-0.229,0.341-0.385,0.626-0.462c1.388-0.378,4.304,1.284,4.427,1.355c0.071,0.041,0.11,0.122,0.096,0.203
				c-0.013,0.081-0.076,0.146-0.156,0.162C298.509,408.021,297.48,408.148,296.483,408.148z M295.16,406.531
				c-0.139,0-0.268,0.014-0.382,0.045c-0.182,0.05-0.309,0.14-0.387,0.276c-0.14,0.245-0.089,0.367-0.038,0.437
				c0.388,0.539,2.497,0.552,4.048,0.332C297.626,407.224,296.134,406.531,295.16,406.531z"/>
			<path style="fill:#407BFF;" d="M299.003,407.918c-0.028,0-0.055-0.006-0.081-0.018c-1.007-0.452-3.001-2.256-2.849-3.199
				c0.036-0.222,0.193-0.497,0.736-0.552c0.405-0.041,0.772,0.073,1.096,0.339c1.061,0.872,1.286,3.119,1.295,3.214
				c0.007,0.07-0.024,0.138-0.081,0.179C299.084,407.905,299.043,407.918,299.003,407.918z M296.967,404.536
				c-0.039,0-0.079,0.002-0.119,0.006c-0.355,0.036-0.378,0.176-0.385,0.222c-0.091,0.566,1.264,1.984,2.291,2.601
				c-0.107-0.656-0.404-2.001-1.101-2.572C297.444,404.621,297.218,404.536,296.967,404.536z"/>
			<polygon style="fill:#FFC3BD;" points="308.176,407.72 299.834,407.72 299.003,388.402 307.345,388.402 			"/>
			<polygon style="fill:#FFC3BD;" points="366.828,394.531 359.141,397.181 351.163,378.967 358.85,376.317 			"/>
			<path style="fill:#263238;" d="M357.313,395.27l8.96-2.748c0.326-0.1,0.678,0.04,0.846,0.337l3.75,6.606
				c0.389,0.685,0.024,1.558-0.733,1.776c-3.145,0.906-4.72,1.188-8.661,2.397c-2.424,0.743-8.542,3.063-11.974,3.753
				c-3.357,0.675-4.564-2.614-3.22-3.204c6.024-2.646,8.463-5.657,9.888-8.029C356.426,395.729,356.836,395.416,357.313,395.27z"/>
			<path style="fill:#263238;" d="M299.889,406.754l9.11,0c0.341,0,0.636,0.237,0.71,0.57l1.648,7.415
				c0.171,0.769-0.413,1.497-1.2,1.484c-3.286-0.056-8.035-0.248-12.165-0.248c-4.83,0-6.866,0.263-12.53,0.263
				c-3.425,0-4.375-3.462-2.942-3.776c6.526-1.427,9.72-1.581,15.359-5.058C298.492,407.026,299.169,406.754,299.889,406.754z"/>
			<g>
				<g>
					<path style="fill:#FFC3BD;" d="M324.14,132.842c2.426,2.231,4.529,4.461,6.705,6.787c2.128,2.339,4.202,4.745,6.162,7.309
						c1.976,2.553,3.854,5.234,5.558,8.245c0.849,1.515,1.664,3.108,2.344,4.94c0.168,0.465,0.34,0.912,0.484,1.43
						c0.15,0.498,0.297,0.994,0.409,1.564l0.171,0.828l0.117,0.92c0.072,0.445,0.145,1.661,0.004,2.548
						c-0.26,1.876-0.994,3.322-1.721,4.436c-0.74,1.108-1.533,1.933-2.302,2.654c-1.548,1.424-3.064,2.426-4.566,3.329
						c-3.007,1.768-5.99,3.037-8.98,4.185c-5.995,2.253-11.973,3.822-18.176,4.997l-1.749-6.014
						c5.43-2.353,10.927-4.888,16.032-7.605c2.543-1.365,5.012-2.829,7.105-4.377c1.037-0.763,1.982-1.576,2.595-2.294
						c0.307-0.351,0.514-0.683,0.594-0.857c0.073-0.171-0.031-0.15-0.109,0.211c-0.066,0.67-0.052,0.15-0.218-0.209
						c-0.045-0.175-0.141-0.4-0.231-0.623c-0.073-0.212-0.202-0.464-0.313-0.706c-0.473-0.981-1.099-2.076-1.806-3.17
						c-1.437-2.196-3.176-4.422-5.001-6.611c-1.838-2.184-3.778-4.351-5.767-6.485c-1.953-2.136-4.085-4.273-6.04-6.257
						L324.14,132.842z"/>
				</g>
				<path style="fill:#FFC3BD;" d="M310.866,180.074l-7.918,2.38l5.06,8.321c0,0,4.656-1.925,5.678-5.876L310.866,180.074z"/>
				<polygon style="fill:#FFC3BD;" points="299.822,185.396 302.919,192.26 308.008,190.775 302.948,182.454 				"/>
				<g>
					<g>
						<path style="fill:#407BFF;" d="M305.699,135.103c-0.753,7.986,16.172,20.374,16.172,20.374l16.292-11.149
							c0,0-3.349-7.177-12.022-12.747C316.82,125.595,306.637,125.162,305.699,135.103z"/>
					</g>
					<g style="opacity:0.3;">
						<path style="fill:#FFFFFF;" d="M305.699,135.103c-0.753,7.986,16.172,20.374,16.172,20.374l16.292-11.149
							c0,0-3.349-7.177-12.022-12.747C316.82,125.595,306.637,125.162,305.699,135.103z"/>
					</g>
				</g>
			</g>
			<g>
				<g>
					<path style="fill:#407BFF;" d="M278.005,134.458c0,0-7.318,11.219,10.046,71.402l44.14-6.519
						c-0.623-6.103-8.007-32.709-8.249-61.805c-0.049-5.906-5.009-10.602-10.908-10.303c-1.289,0.066-2.608,0.158-3.91,0.287
						c-5.68,0.561-13.872,1.587-18.764,2.772C283.911,131.855,278.005,134.458,278.005,134.458z"/>
				</g>
				<g style="opacity:0.3;">
					<path style="fill:#FFFFFF;" d="M278.005,134.458c0,0-7.318,11.219,10.046,71.402l44.14-6.519
						c-0.623-6.103-8.007-32.709-8.249-61.805c-0.049-5.906-5.009-10.602-10.908-10.303c-1.289,0.066-2.608,0.158-3.91,0.287
						c-5.68,0.561-13.872,1.587-18.764,2.772C283.911,131.855,278.005,134.458,278.005,134.458z"/>
				</g>
			</g>
			<path style="opacity:0.2;" d="M276.918,153.797l0.147-0.171l10.387,0.922c1.575,6.701-4.203,15.842-7.25,20.079
				C278.428,166.039,277.431,159.208,276.918,153.797z"/>
			<g>
				<polygon style="opacity:0.2;" points="299.005,388.407 299.431,398.365 307.777,398.365 307.35,388.407 				"/>
				<polygon style="opacity:0.2;" points="358.854,376.321 351.164,378.973 355.28,388.36 362.97,385.708 				"/>
			</g>
			<path style="fill:#FFC3BD;" d="M303.147,98.318c1.84,8.072,3.328,12.703,0.518,17.948c-4.227,7.89-15.08,7.132-19.295-0.228
				c-3.794-6.624-6.166-18.712,0.669-24.145C291.772,86.54,301.306,90.246,303.147,98.318z"/>
			<path style="fill:#263238;" d="M286.937,106.232l-3.072,1.879l0.294-10.5c0,0-3.222,0.222-5.556-1.611
				c1.111-1.056,18.389-7.111,23.778-6.056c0.556-0.236,1.243-1.278,1.243-1.278s0.208,1.313-0.708,1.813
				c0.667-0.125,2.31,0.188,2.771,1.16c-1.448-0.306-2.292,0.132-2.292,0.132s6.044,0.907,3.875,9.229
				c-2.389,9.167-1.596,14.444-1.596,14.444s-4.46,3.445-8.348,2.806C293.187,113.694,287.215,108.214,286.937,106.232z"/>
			<path style="fill:#263238;" d="M281.061,95.167c-4.875,0.042-6.625-2.375-7.875-4.375c3.5-0.375,10.792-2.625,16.208-3
				c5.417-0.375,11.333,0.625,9.542,2.958S281.061,95.167,281.061,95.167z"/>
			<path style="fill:#263238;" d="M282.133,92.998c-3.974-0.554-7.905-4.331-4.905-7.942c1.111,2.659,8.605,2.348,13.92,1.236
				c6.969-1.458,11.85,0.897,9.369,5.666C299.158,94.568,282.133,92.998,282.133,92.998z"/>
			<path style="fill:#FFC3BD;" d="M291.262,103.844c0.633,2.074,0.402,4.333-0.267,6.003c-1.006,2.512-3.219,2.005-4.372-0.17
				c-1.038-1.958-1.765-5.623-0.066-7.434C288.23,100.458,290.538,101.472,291.262,103.844z"/>
			<path style="fill:#263238;" d="M303.709,203.548c0,0,7.162,60.951,12.36,84.835c5.691,26.154,33.763,97.48,33.763,97.48
				l14.038-4.844c0,0-17.998-53.7-22.774-90.265c-3.669-28.086-8.904-91.412-8.904-91.412L303.709,203.548z"/>
			<path style="fill:#407BFF;" d="M346.247,381.378c-0.062,0.02,2.874,5.992,2.874,5.992l16.35-5.308l-1.917-4.883L346.247,381.378z
				"/>
			<path style="opacity:0.3;" d="M307.656,234.823c2.241,16.933,5.11,36.957,7.638,49.811
				C318.948,264.96,319.872,240.209,307.656,234.823z"/>
			<path style="fill:#263238;" d="M288.051,205.86c0,0-5.94,57.258-5.033,82.698c0.944,26.461,13.305,107.879,13.305,107.879h14.132
				c0,0-2.6-79.872-1.972-105.859c0.685-28.33,11.308-89.405,11.308-89.405L288.051,205.86z"/>
			<path style="fill:#407BFF;" d="M293.603,390.808c-0.065,0,0.797,5.867,0.797,5.867h17.19l0.465-5.236L293.603,390.808z"/>
			<g>
				<path style="fill:#FFC3BD;" d="M285.315,148.519c-1.562,2.48-3.145,4.71-4.789,7.005c-1.631,2.281-3.353,4.497-5.105,6.7
					c-3.545,4.38-7.326,8.616-11.569,12.618c-1.124,0.972-2.156,1.975-3.361,2.908l-0.879,0.708l-0.439,0.353
					c-0.164,0.129-0.23,0.195-0.563,0.435c-1.111,0.808-2.208,1.308-3.228,1.67c-2.056,0.702-3.843,0.865-5.527,0.944
					c-1.68,0.068-3.252-0.037-4.774-0.214c-6.067-0.747-11.413-2.439-16.747-4.732l1.724-6.021
					c5.184,0.518,10.598,0.96,15.426,0.741c1.2-0.069,2.359-0.191,3.393-0.37c1.023-0.18,1.951-0.475,2.439-0.764
					c0.247-0.133,0.376-0.26,0.343-0.288c-0.056,0.04,0.128-0.126,0.223-0.218l0.334-0.315l0.669-0.628
					c0.9-0.8,1.756-1.772,2.635-2.646c1.731-1.863,3.445-3.772,5.082-5.806c1.669-1.991,3.279-4.072,4.875-6.163
					c1.602-2.092,3.15-4.236,4.717-6.369c1.542-2.126,3.08-4.365,4.517-6.436L285.315,148.519z"/>
			</g>
			<g>
				<g>
					<path style="fill:#407BFF;" d="M291.117,145.868c3.365,10.995-16.145,23.195-16.145,23.195l-12.677-16.157
						c0,0,3.516-7.093,10.497-14.691C281.416,128.83,288.556,137.498,291.117,145.868z"/>
				</g>
				<g style="opacity:0.3;">
					<path style="fill:#FFFFFF;" d="M291.117,145.868c3.365,10.995-16.145,23.195-16.145,23.195l-12.677-16.157
						c0,0,3.516-7.093,10.497-14.691C281.416,128.83,288.556,137.498,291.117,145.868z"/>
				</g>
			</g>
			<path style="fill:#FFC3BD;" d="M232.975,171.329l-10.262-1.883l1.08,8.886c0,0,5.333,2.987,9.211-1.689L232.975,171.329z"/>
			<polygon style="fill:#FFC3BD;" points="218.772,171.45 220.992,177.859 223.793,178.332 222.713,169.446 			"/>
		</g>
	</g>
</g>
</svg>
